<svg width="55" height="55" viewBox="0 0 55 55" fill="none" xmlns="http://www.w3.org/2000/svg">
<path fill-rule="evenodd" clip-rule="evenodd" d="M23.5098 7.16354C23.0598 7.33854 22.8348 7.58851 22.8848 7.8635C22.9598 8.28849 13.785 20.6881 11.4351 28.2128C10.7101 30.5628 11.8851 30.8878 17.235 29.8628C20.4849 29.2378 20.3598 28.5879 18.2099 34.6377C16.61 39.0875 15.435 42.8124 14.8851 45.0873C14.1351 48.0872 15.71 49.6621 19.6099 45.5873C21.2848 43.8373 25.0847 39.9125 33.9844 29.7628C41.5342 21.1631 41.5091 21.3881 35.5593 21.1631L31.8845 21.0131C33.6095 19.1882 40.0591 12.2384 42.0341 10.6134C44.009 8.96347 44.6341 8.28851 41.9842 7.91352C38.9093 7.46353 28.5096 7.28854 25.4597 7.01355C24.7597 6.93856 23.8848 7.01355 23.5098 7.16354ZM38.3342 9.68845L37.0342 10.7634C33.8593 13.3633 27.5846 20.8381 27.5846 21.988C27.5846 23.238 29.6846 23.113 35.1094 23.113C27.1096 32.3877 20.8598 39.6125 20.7098 39.6125C20.6598 39.6125 21.2349 37.9625 22.0098 35.9126C24.9097 28.1379 25.0597 26.6879 23.0098 26.9379C19.4599 27.3629 15.985 27.8379 15.51 27.9878C15.0851 28.1128 15.36 27.4379 16.9599 24.438C19.8099 18.9882 20.9598 17.4132 25.9597 9.08847C35.4843 9.51345 35.3843 9.51346 38.3342 9.68845Z" fill="#006B99"/>
</svg>
