<svg width="159" height="27" viewBox="0 0 159 27" fill="none" xmlns="http://www.w3.org/2000/svg">
<g clip-path="url(#clip0_2_728)">
<path opacity="0.4" d="M28.1706 10.2513L17.4472 17.8315H12.6812L1.95789 10.2513L15.0643 1.5882L28.1706 10.2513Z" fill="#969FA4"/>
<path fill-rule="evenodd" clip-rule="evenodd" d="M14.4581 0.687181C14.8249 0.444686 15.3029 0.444686 15.6697 0.687181L28.7761 9.3503C29.0799 9.55115 29.2625 9.88926 29.2625 10.2513V24.3289C29.2625 24.9033 29.0323 25.4541 28.6226 25.8603C28.213 26.2665 27.6574 26.4947 27.078 26.4947H3.04975C2.47042 26.4947 1.9148 26.2665 1.50515 25.8603C1.0955 25.4541 0.865356 24.9033 0.865356 24.3289V10.2513C0.865356 9.88926 1.04787 9.55115 1.35171 9.3503L14.4581 0.687181ZM3.04975 10.8309V24.3289H27.078V10.8309L15.0639 2.88967L3.04975 10.8309Z" fill="#969FA4"/>
<path fill-rule="evenodd" clip-rule="evenodd" d="M13.5732 17.2068C13.9213 17.6952 13.804 18.371 13.3113 18.716L2.9247 25.9902C2.43201 26.3353 1.75049 26.2189 1.40247 25.7305C1.05445 25.242 1.17173 24.5663 1.66442 24.2212L12.051 16.947C12.5437 16.602 13.2253 16.7182 13.5732 17.2068Z" fill="#969FA4"/>
<path fill-rule="evenodd" clip-rule="evenodd" d="M16.555 17.2066C16.9029 16.7182 17.5845 16.6019 18.0771 16.9469L28.464 24.2212C28.9566 24.5662 29.0739 25.2419 28.7259 25.7305C28.3779 26.219 27.6964 26.3353 27.2037 25.9902L16.8169 18.7159C16.3242 18.3709 16.2069 17.6952 16.555 17.2066Z" fill="#969FA4"/>
<path fill-rule="evenodd" clip-rule="evenodd" d="M1.06833 9.62264C1.4185 9.13568 2.10053 9.02237 2.59169 9.36962L13.0304 16.7486H17.0975L27.5363 9.36962C28.0275 9.02237 28.7095 9.13568 29.0597 9.62264C29.4098 10.1097 29.2955 10.7859 28.8044 11.1331L18.0811 18.7133C17.896 18.8441 17.6744 18.9145 17.447 18.9145H12.681C12.4536 18.9145 12.232 18.8441 12.0469 18.7133L1.32359 11.1331C0.832436 10.7859 0.718152 10.1097 1.06833 9.62264Z" fill="#969FA4"/>
<path d="M41.0166 22.5038C40.7238 22.5038 40.4772 22.4045 40.2769 22.2058C40.0765 22.0072 39.9764 21.7627 39.9764 21.4724V7.78953C39.9764 7.37698 40.1228 7.02555 40.4156 6.73524C40.7084 6.42965 41.0628 6.27686 41.479 6.27686H41.7794C42.2726 6.27686 42.6964 6.50604 43.0509 6.96443L51.9507 19.7076V7.33114C51.9507 7.04083 52.0508 6.79636 52.2512 6.59772C52.4515 6.38381 52.698 6.27686 52.9908 6.27686C53.2837 6.27686 53.5303 6.38381 53.7306 6.59772C53.9463 6.79636 54.0542 7.04083 54.0542 7.33114V21.014C54.0542 21.4266 53.9001 21.778 53.5919 22.0683C53.2991 22.3586 52.9446 22.5038 52.5285 22.5038H52.2512C52.0046 22.5038 51.7734 22.4503 51.5576 22.3433C51.3419 22.2211 51.1647 22.0683 51.026 21.885L42.0799 9.07302V21.4724C42.0799 21.7627 41.972 22.0072 41.7563 22.2058C41.556 22.4045 41.3094 22.5038 41.0166 22.5038Z" fill="#969FA4"/>
<path d="M63.0017 22.6184C61.8151 22.6184 60.7748 22.3663 59.881 21.8621C58.9872 21.3578 58.2937 20.6473 57.8006 19.7306C57.3228 18.7985 57.0839 17.7366 57.0839 16.5447C57.0839 15.353 57.3228 14.2987 57.8006 13.3819C58.2937 12.4498 58.9872 11.7317 59.881 11.2275C60.7748 10.7233 61.8151 10.4711 63.0017 10.4711C64.173 10.4711 65.2055 10.7233 66.0993 11.2275C66.9931 11.7317 67.6866 12.4498 68.1798 13.3819C68.6729 14.2987 68.9195 15.353 68.9195 16.5447C68.9195 17.7366 68.6729 18.7985 68.1798 19.7306C67.6866 20.6473 66.9931 21.3578 66.0993 21.8621C65.2055 22.3663 64.173 22.6184 63.0017 22.6184ZM63.0017 20.7161C63.6336 20.7161 64.2346 20.571 64.8048 20.2806C65.3904 19.9903 65.8681 19.5319 66.238 18.9055C66.6233 18.279 66.816 17.4844 66.816 16.5218C66.816 15.5745 66.6233 14.7876 66.238 14.1612C65.8681 13.5347 65.3904 13.0839 64.8048 12.8089C64.2346 12.5186 63.6336 12.3734 63.0017 12.3734C62.3545 12.3734 61.7381 12.5186 61.1524 12.8089C60.5822 13.0839 60.1122 13.5347 59.7423 14.1612C59.3725 14.7876 59.1876 15.5745 59.1876 16.5218C59.1876 17.4844 59.3725 18.279 59.7423 18.9055C60.1122 19.5319 60.5822 19.9903 61.1524 20.2806C61.7381 20.571 62.3545 20.7161 63.0017 20.7161Z" fill="#969FA4"/>
<path d="M75.2201 22.5038C74.9119 22.5038 74.6345 22.4121 74.3879 22.2288C74.1413 22.0454 73.9718 21.8162 73.8794 21.5412L70.5969 12.0067C70.5506 11.8692 70.5275 11.7394 70.5275 11.6171C70.5275 11.3268 70.6277 11.0823 70.828 10.8837C71.0284 10.685 71.2749 10.5858 71.5677 10.5858C71.7835 10.5858 71.9761 10.6468 72.1457 10.7691C72.3306 10.876 72.4538 11.0212 72.5155 11.2046L75.2201 20.0285L77.9016 11.4108C77.9787 11.1663 78.1174 10.9678 78.3177 10.8149C78.5334 10.6621 78.7724 10.5858 79.0343 10.5858C79.2963 10.5858 79.5275 10.6621 79.7278 10.8149C79.9435 10.9678 80.09 11.1663 80.167 11.4108L82.8485 20.0285L85.5531 11.2046C85.6147 11.0212 85.7303 10.876 85.8999 10.7691C86.0848 10.6468 86.2852 10.5858 86.5009 10.5858C86.7937 10.5858 87.0403 10.685 87.2406 10.8837C87.4409 11.0823 87.5411 11.3268 87.5411 11.6171C87.5411 11.7394 87.518 11.8692 87.4718 12.0067L84.1892 21.5412C84.0967 21.8162 83.9273 22.0454 83.6807 22.2288C83.4341 22.4121 83.1567 22.5038 82.8485 22.5038C82.5403 22.5038 82.2629 22.4121 82.0163 22.2288C81.7697 22.0454 81.5925 21.8086 81.4847 21.5182L79.0343 13.9319L76.584 21.5182C76.4761 21.8086 76.2989 22.0454 76.0523 22.2288C75.8057 22.4121 75.5283 22.5038 75.2201 22.5038Z" fill="#969FA4"/>
<path fill-rule="evenodd" clip-rule="evenodd" d="M43.1718 6.87179C43.1734 6.87375 43.1748 6.87574 43.1762 6.87776L51.7961 19.2201V7.33119C51.7961 7.00294 51.9108 6.71996 52.1396 6.49205C52.3685 6.24866 52.6551 6.12457 52.9899 6.12457C53.3238 6.12457 53.6098 6.24796 53.8383 6.49C54.0825 6.71663 54.2069 7.00013 54.2069 7.33119V21.014C54.2069 21.4687 54.0353 21.8593 53.6982 22.1774C53.3767 22.4955 52.9836 22.6561 52.5276 22.6561H52.2502C51.9803 22.6561 51.7256 22.5973 51.488 22.4796C51.4855 22.4784 51.483 22.477 51.4805 22.4756C51.248 22.3439 51.0544 22.1776 50.9022 21.9763L50.8988 21.9717L42.2327 9.5607V21.4724C42.2327 21.8044 42.1075 22.0886 41.862 22.3156C41.6322 22.5425 41.3467 22.6561 41.0157 22.6561C40.6837 22.6561 40.3976 22.5418 40.1673 22.3136C39.9371 22.0853 39.8218 21.8016 39.8218 21.4724V7.78957C39.8218 7.3375 39.9838 6.94773 40.3046 6.62896C40.6255 6.29477 41.0194 6.12457 41.478 6.12457H41.7785C42.3284 6.12457 42.7943 6.38349 43.1718 6.87179ZM40.4147 6.73528C40.7075 6.42969 41.062 6.2769 41.478 6.2769H41.7785C42.2717 6.2769 42.6954 6.50608 43.0499 6.96447L51.9498 19.7076V7.33119C51.9498 7.04087 52.0499 6.79639 52.2502 6.59776C52.4506 6.38385 52.6972 6.2769 52.9899 6.2769C53.2827 6.2769 53.5293 6.38385 53.7297 6.59776C53.9454 6.79639 54.0533 7.04087 54.0533 7.33119V21.014C54.0533 21.4266 53.8992 21.778 53.591 22.0683C53.2982 22.3586 52.9437 22.5038 52.5276 22.5038H52.2502C52.0037 22.5038 51.7725 22.4503 51.5567 22.3434C51.341 22.2212 51.1637 22.0683 51.0251 21.885L42.079 9.07304V21.4724C42.079 21.7628 41.9712 22.0072 41.7554 22.2058C41.5551 22.4045 41.3085 22.5038 41.0157 22.5038C40.7229 22.5038 40.4763 22.4045 40.276 22.2058C40.0756 22.0072 39.9755 21.7628 39.9755 21.4724V7.78957C39.9755 7.37702 40.1218 7.02559 40.4147 6.73528ZM57.6626 19.7995C57.1725 18.8433 56.9294 17.7572 56.9294 16.5447C56.9294 15.3324 57.1725 14.2535 57.6631 13.312L57.6636 13.3112C58.1699 12.3542 58.8838 11.6142 59.8041 11.0951C60.7245 10.5759 61.7917 10.3188 63.0008 10.3188C64.1949 10.3188 65.2543 10.5761 66.1744 11.0951C67.0944 11.6141 67.8082 12.3538 68.3146 13.3105C68.8211 14.2523 69.0722 15.3318 69.0722 16.5447C69.0722 17.7579 68.8211 18.8447 68.3149 19.8014L68.3144 19.8022C67.8079 20.7439 67.0939 21.4757 66.1744 21.9945C65.2543 22.5135 64.1949 22.7708 63.0008 22.7708C61.7917 22.7708 60.7245 22.5136 59.8041 21.9945C58.8845 21.4757 58.1706 20.7439 57.664 19.8022L57.6626 19.7995ZM68.1788 13.3819C67.6857 12.4499 66.9922 11.7317 66.0984 11.2275C65.2046 10.7233 64.172 10.4711 63.0008 10.4711C61.8142 10.4711 60.7739 10.7233 59.8801 11.2275C58.9863 11.7317 58.2927 12.4499 57.7996 13.3819C57.3219 14.2987 57.083 15.353 57.083 16.5447C57.083 17.7366 57.3219 18.7985 57.7996 19.7306C58.2927 20.6473 58.9863 21.3579 59.8801 21.8621C60.7739 22.3663 61.8142 22.6184 63.0008 22.6184C64.172 22.6184 65.2046 22.3663 66.0984 21.8621C66.9922 21.3579 67.6857 20.6473 68.1788 19.7306C68.672 18.7985 68.9186 17.7366 68.9186 16.5447C68.9186 15.353 68.672 14.2987 68.1788 13.3819ZM64.7337 20.1451L64.7351 20.1444C65.291 19.8688 65.7478 19.4326 66.1045 18.8285L66.1059 18.8261C66.4725 18.23 66.6613 17.465 66.6613 16.5218C66.6613 15.5945 66.4728 14.837 66.1059 14.2405L66.1045 14.2381C65.7482 13.6346 65.2922 13.2068 64.7381 12.9466L64.7336 12.9445C64.1849 12.6651 63.6079 12.5257 63.0008 12.5257C62.3776 12.5257 61.7847 12.6653 61.2202 12.9452L61.2187 12.9459C60.6798 13.2058 60.2309 13.6335 59.8739 14.2381C59.5215 14.8351 59.3402 15.5935 59.3402 16.5218C59.3402 17.4659 59.5217 18.2318 59.8739 18.8285C60.231 19.4334 60.6806 19.8695 61.221 20.1448C61.7853 20.4244 62.378 20.5638 63.0008 20.5638C63.6079 20.5638 64.1849 20.4245 64.7337 20.1451ZM61.1515 20.2807C60.5813 19.9903 60.1112 19.5319 59.7414 18.9055C59.3715 18.279 59.1865 17.4845 59.1865 16.5218C59.1865 15.5746 59.3715 14.7876 59.7414 14.1611C60.1112 13.5347 60.5813 13.0839 61.1515 12.8089C61.737 12.5186 62.3535 12.3735 63.0008 12.3735C63.6327 12.3735 64.2336 12.5186 64.8038 12.8089C65.3895 13.0839 65.8672 13.5347 66.2371 14.1611C66.6223 14.7876 66.8149 15.5746 66.8149 16.5218C66.8149 17.4845 66.6223 18.279 66.2371 18.9055C65.8672 19.5319 65.3895 19.9903 64.8038 20.2807C64.2336 20.5709 63.6327 20.7161 63.0008 20.7161C62.3535 20.7161 61.737 20.5709 61.1515 20.2807ZM87.4709 12.0067L84.1884 21.5412C84.0959 21.8163 83.9263 22.0454 83.6798 22.2288C83.4332 22.4121 83.1558 22.5038 82.8476 22.5038C82.5393 22.5038 82.262 22.4121 82.0154 22.2288C81.7689 22.0454 81.5916 21.8086 81.4837 21.5183L79.0334 13.932L76.5831 21.5183C76.4752 21.8086 76.2979 22.0454 76.0514 22.2288C75.8049 22.4121 75.5274 22.5038 75.2192 22.5038C74.911 22.5038 74.6336 22.4121 74.387 22.2288C74.1405 22.0454 73.9709 21.8163 73.8785 21.5412L70.5959 12.0067C70.5497 11.8692 70.5266 11.7393 70.5266 11.6171C70.5266 11.3268 70.6267 11.0823 70.8271 10.8837C71.0275 10.685 71.274 10.5857 71.5669 10.5857C71.7826 10.5857 71.9752 10.6469 72.1447 10.7691C72.3297 10.876 72.4529 11.0212 72.5146 11.2046L75.2192 20.0285L77.9007 11.4108C77.9778 11.1663 78.1164 10.9677 78.3168 10.8149C78.5325 10.6621 78.7714 10.5857 79.0334 10.5857C79.2954 10.5857 79.5265 10.6621 79.7269 10.8149C79.9426 10.9677 80.0891 11.1663 80.1661 11.4108L82.8476 20.0285L85.5522 11.2046C85.6138 11.0212 85.7294 10.876 85.899 10.7691C86.0839 10.6469 86.2843 10.5857 86.5 10.5857C86.7928 10.5857 87.0394 10.685 87.2397 10.8837C87.4401 11.0823 87.5402 11.3268 87.5402 11.6171C87.5402 11.7393 87.5171 11.8692 87.4709 12.0067ZM85.8151 10.6414C86.0241 10.5037 86.2535 10.4334 86.5 10.4334C86.832 10.4334 87.1181 10.5478 87.3484 10.776C87.5786 11.0042 87.6938 11.2879 87.6938 11.6171C87.6938 11.7584 87.6671 11.9046 87.6166 12.0549L87.6163 12.0559L84.3341 21.5894C84.334 21.5896 84.3339 21.5899 84.3338 21.5902C84.2309 21.8959 84.0418 22.1499 83.772 22.3506C83.4988 22.5538 83.189 22.6561 82.8476 22.6561C82.5061 22.6561 82.1964 22.5538 81.9232 22.3506C81.6526 22.1494 81.4575 21.8885 81.3396 21.5709C81.3389 21.5689 81.3381 21.5668 81.3374 21.5647L79.0334 14.4314L76.7293 21.5647C76.7287 21.5668 76.728 21.5689 76.7272 21.5709C76.6093 21.8885 76.4142 22.1494 76.1436 22.3506C75.8704 22.5538 75.5606 22.6561 75.2192 22.6561C74.8777 22.6561 74.568 22.5538 74.2949 22.3506C74.0249 22.1499 73.8359 21.8959 73.7329 21.5902C73.7328 21.5899 73.7328 21.5896 73.7327 21.5894L70.4502 12.0549C70.3996 11.9046 70.3729 11.7584 70.3729 11.6171C70.3729 11.2879 70.4883 11.0042 70.7184 10.776C70.9487 10.5478 71.2348 10.4334 71.5669 10.4334C71.8114 10.4334 72.0337 10.5026 72.2289 10.6414C72.4391 10.7648 72.5865 10.9367 72.6603 11.1564L72.6617 11.1602L75.2203 19.5083L77.7539 11.366L77.7541 11.3654C77.8403 11.0917 77.9971 10.8665 78.2232 10.6942L78.2275 10.691C78.4689 10.52 78.739 10.4334 79.0334 10.4334C79.327 10.4334 79.5906 10.5195 79.8183 10.6925C80.0594 10.8638 80.2257 11.0892 80.3127 11.3654L80.3129 11.366L82.8465 19.5083L85.4064 11.1564C85.4794 10.9393 85.6175 10.7665 85.8151 10.6414Z" fill="#969FA4"/>
<path d="M92.3096 22.5038C92.0162 22.5038 91.7693 22.4045 91.569 22.2058C91.3688 22.0072 91.2686 21.7627 91.2686 21.4724V7.33114C91.2686 7.04083 91.3688 6.79636 91.569 6.59772C91.7693 6.38381 92.0162 6.27686 92.3096 6.27686C92.6021 6.27686 92.849 6.38381 93.0492 6.59772C93.2645 6.79636 93.3725 7.04083 93.3725 7.33114V21.4724C93.3725 21.7627 93.2645 22.0072 93.0492 22.2058C92.849 22.4045 92.6021 22.5038 92.3096 22.5038Z" fill="#969FA4"/>
<path d="M98.2594 22.5038C97.966 22.5038 97.72 22.4045 97.5197 22.2059C97.3194 22.0072 97.2193 21.7627 97.2193 21.4724V11.6401C97.2193 11.3497 97.3194 11.1052 97.5197 10.9066C97.72 10.6927 97.966 10.5858 98.2594 10.5858C98.5519 10.5858 98.7988 10.6927 98.999 10.9066C99.2143 11.1052 99.3223 11.3497 99.3223 11.6401V12.5797C99.9082 11.9379 100.54 11.4261 101.218 11.0441C101.896 10.6621 102.697 10.4711 103.622 10.4711C104.47 10.4711 105.202 10.6698 105.818 11.067C106.45 11.4643 106.928 12.0067 107.251 12.6943C107.59 13.3819 107.76 14.1383 107.76 14.9633V21.4724C107.76 21.7627 107.652 22.0072 107.437 22.2059C107.236 22.4045 106.989 22.5038 106.697 22.5038C106.404 22.5038 106.158 22.4045 105.957 22.2059C105.756 22.0072 105.656 21.7627 105.656 21.4724V15.1926C105.656 13.3284 104.809 12.3963 103.114 12.3963C102.343 12.3963 101.649 12.595 101.033 12.9922C100.432 13.3896 99.8617 13.9243 99.3223 14.5966V21.4724C99.3223 21.7627 99.2143 22.0072 98.999 22.2059C98.7988 22.4045 98.5519 22.5038 98.2594 22.5038Z" fill="#969FA4"/>
<path fill-rule="evenodd" clip-rule="evenodd" d="M92.3087 22.6561C91.9767 22.6561 91.6912 22.5418 91.461 22.3136C91.2309 22.0853 91.1149 21.8016 91.1149 21.4724V7.33119C91.1149 7.00294 91.23 6.71997 91.4584 6.49206C91.6877 6.24866 91.9741 6.12457 92.3087 6.12457C92.6426 6.12457 92.9289 6.24796 93.1573 6.49C93.4015 6.71663 93.5263 7.00012 93.5263 7.33119V21.4724C93.5263 21.8044 93.4007 22.0886 93.1556 22.3156C92.9254 22.5425 92.6399 22.6561 92.3087 22.6561ZM93.0484 22.2058C93.2645 22.0072 93.3726 21.7628 93.3726 21.4724V7.33119C93.3726 7.04087 93.2645 6.79639 93.0484 6.59776C92.8481 6.38385 92.6022 6.2769 92.3087 6.2769C92.0162 6.2769 91.7694 6.38385 91.5691 6.59776C91.3688 6.79639 91.2687 7.04087 91.2687 7.33119V21.4724C91.2687 21.7628 91.3688 22.0072 91.5691 22.2058C91.7694 22.4045 92.0162 22.5038 92.3087 22.5038C92.6022 22.5038 92.8481 22.4045 93.0484 22.2058ZM98.2594 22.6561C97.9273 22.6561 97.641 22.5418 97.4108 22.3136C97.1806 22.0853 97.0647 21.8016 97.0647 21.4724V11.64C97.0647 11.3118 97.1798 11.0288 97.409 10.8009C97.6374 10.5575 97.9238 10.4334 98.2594 10.4334C98.5932 10.4334 98.8787 10.5568 99.1071 10.7989C99.3513 11.0255 99.476 11.309 99.476 11.64V12.1964C99.9952 11.6734 100.55 11.2447 101.142 10.9117C101.847 10.5144 102.675 10.3188 103.622 10.3188C104.495 10.3188 105.256 10.5235 105.901 10.9388C106.557 11.3518 107.054 11.9162 107.39 12.6287C107.74 13.3383 107.914 14.1174 107.914 14.9633V21.4724C107.914 21.8044 107.788 22.0886 107.543 22.3156C107.313 22.5425 107.027 22.6561 106.696 22.6561C106.364 22.6561 106.079 22.5418 105.848 22.3136C105.618 22.0853 105.502 21.8016 105.502 21.4724V15.1925C105.502 14.2803 105.295 13.6245 104.907 13.1974C104.521 12.7733 103.933 12.5486 103.114 12.5486C102.371 12.5486 101.707 12.7394 101.118 13.1195C100.544 13.4983 99.997 14.0075 99.476 14.65V21.4724C99.476 21.8044 99.3504 22.0886 99.1053 22.3156C98.8752 22.5425 98.5897 22.6561 98.2594 22.6561ZM98.999 22.2058C99.2143 22.0072 99.3223 21.7628 99.3223 21.4724V14.5966C99.8617 13.9243 100.432 13.3896 101.033 12.9922C101.649 12.595 102.342 12.3964 103.114 12.3964C104.808 12.3964 105.656 13.3284 105.656 15.1925V21.4724C105.656 21.7628 105.756 22.0072 105.956 22.2058C106.157 22.4045 106.404 22.5038 106.696 22.5038C106.989 22.5038 107.235 22.4045 107.437 22.2058C107.652 22.0072 107.76 21.7628 107.76 21.4724V14.9633C107.76 14.1382 107.59 13.3819 107.251 12.6944C106.928 12.0067 106.45 11.4643 105.818 11.067C105.202 10.6698 104.469 10.4711 103.622 10.4711C102.697 10.4711 101.896 10.6621 101.218 11.0441C100.599 11.393 100.018 11.85 99.476 12.4155C99.4242 12.4692 99.3733 12.524 99.3223 12.5797V11.64C99.3223 11.3498 99.2143 11.1053 98.999 10.9066C98.7988 10.6927 98.5519 10.5857 98.2594 10.5857C97.966 10.5857 97.72 10.6927 97.5189 10.9066C97.3186 11.1053 97.2184 11.3498 97.2184 11.64V21.4724C97.2184 21.7628 97.3186 22.0072 97.5189 22.2058C97.72 22.4045 97.966 22.5038 98.2594 22.5038C98.5519 22.5038 98.7988 22.4045 98.999 22.2058Z" fill="#969FA4"/>
<path d="M114.904 22.5037C114.611 22.5037 114.365 22.4044 114.164 22.2058C113.964 22.0071 113.863 21.7627 113.863 21.4723V8.33956H109.148C108.87 8.33956 108.639 8.24789 108.455 8.06454C108.269 7.88118 108.177 7.65199 108.177 7.37695C108.177 7.10192 108.269 6.87272 108.455 6.68937C108.639 6.49073 108.87 6.39142 109.148 6.39142H120.66C120.938 6.39142 121.169 6.49073 121.353 6.68937C121.553 6.87272 121.653 7.10192 121.653 7.37695C121.653 7.65199 121.553 7.88118 121.353 8.06454C121.169 8.24789 120.938 8.33956 120.66 8.33956H115.967V21.4723C115.967 21.7627 115.859 22.0071 115.644 22.2058C115.444 22.4044 115.197 22.5037 114.904 22.5037Z" fill="#969FA4"/>
<path d="M127.57 22.6183C125.69 22.6183 124.218 22.0911 123.155 21.0368C122.107 19.9673 121.582 18.4699 121.582 16.5446C121.582 15.4598 121.783 14.459 122.184 13.5422C122.585 12.6254 123.2 11.8844 124.033 11.3191C124.865 10.7537 125.89 10.471 127.108 10.471C128.248 10.471 129.234 10.7384 130.066 11.2732C130.898 11.7927 131.531 12.4956 131.962 13.3818C132.393 14.2528 132.609 15.2077 132.609 16.2467C132.609 16.537 132.509 16.7815 132.309 16.9801C132.124 17.1788 131.87 17.2781 131.546 17.2781H123.709C123.833 18.3476 124.233 19.1803 124.912 19.7763C125.59 20.3722 126.538 20.6701 127.755 20.6701C128.402 20.6701 128.965 20.609 129.442 20.4868C129.935 20.3645 130.413 20.1888 130.875 19.9597C130.998 19.8985 131.137 19.868 131.292 19.868C131.538 19.868 131.754 19.952 131.938 20.1201C132.124 20.2881 132.216 20.502 132.216 20.7618C132.216 21.0979 132.016 21.3807 131.615 21.6098C131.014 21.946 130.42 22.1981 129.835 22.3662C129.249 22.5343 128.495 22.6183 127.57 22.6183ZM130.528 15.582C130.483 14.8333 130.282 14.2069 129.928 13.7026C129.588 13.1984 129.165 12.8317 128.656 12.6025C128.148 12.358 127.631 12.2359 127.108 12.2359C126.583 12.2359 126.068 12.358 125.559 12.6025C125.05 12.8317 124.626 13.1984 124.287 13.7026C123.948 14.2069 123.756 14.8333 123.709 15.582H130.528Z" fill="#969FA4"/>
<path d="M140.848 22.6183C139.738 22.6183 138.714 22.3738 137.774 21.8849C136.833 21.3959 136.079 20.693 135.508 19.7763C134.953 18.8595 134.676 17.7823 134.676 16.5446C134.676 15.307 134.953 14.2298 135.508 13.313C136.079 12.3963 136.833 11.6934 137.774 11.2045C138.714 10.7155 139.738 10.471 140.848 10.471C141.665 10.471 142.366 10.578 142.952 10.7919C143.552 10.9905 144.108 11.2503 144.616 11.5711C144.925 11.7698 145.078 12.0372 145.078 12.3733C145.078 12.6025 144.986 12.8164 144.801 13.0151C144.631 13.1984 144.431 13.2901 144.2 13.2901C144.03 13.2901 143.861 13.2443 143.691 13.1525C143.183 12.8928 142.743 12.7095 142.374 12.6025C142.02 12.4802 141.572 12.4192 141.033 12.4192C139.707 12.4192 138.667 12.8012 137.912 13.5651C137.157 14.3138 136.78 15.307 136.78 16.5446C136.78 17.7823 137.157 18.7831 137.912 19.5471C138.667 20.2958 139.707 20.6701 141.033 20.6701C141.572 20.6701 142.02 20.6167 142.374 20.5097C142.743 20.3875 143.183 20.1965 143.691 19.9367C143.861 19.8451 144.03 19.7992 144.2 19.7992C144.431 19.7992 144.631 19.8985 144.801 20.0971C144.986 20.2805 145.078 20.4868 145.078 20.7159C145.078 21.0521 144.925 21.3195 144.616 21.5182C144.108 21.8391 143.552 22.1064 142.952 22.3204C142.366 22.5189 141.665 22.6183 140.848 22.6183Z" fill="#969FA4"/>
<path d="M148.758 22.5037C148.466 22.5037 148.219 22.4044 148.018 22.2058C147.818 22.0071 147.718 21.7627 147.718 21.4723V6.59769C147.718 6.30738 147.818 6.0629 148.018 5.86427C148.219 5.65036 148.466 5.5434 148.758 5.5434C149.052 5.5434 149.297 5.65036 149.498 5.86427C149.714 6.0629 149.822 6.30738 149.822 6.59769V12.5797C150.408 11.9379 151.039 11.4261 151.718 11.0441C152.396 10.6621 153.197 10.4711 154.121 10.4711C154.969 10.4711 155.701 10.6697 156.317 11.067C156.95 11.4642 157.427 12.0067 157.751 12.6943C158.09 13.3818 158.259 14.1382 158.259 14.9632V21.4723C158.259 21.7627 158.151 22.0071 157.935 22.2058C157.735 22.4044 157.489 22.5037 157.196 22.5037C156.903 22.5037 156.656 22.4044 156.456 22.2058C156.256 22.0071 156.156 21.7627 156.156 21.4723V15.1925C156.156 13.3283 155.308 12.3963 153.613 12.3963C152.842 12.3963 152.149 12.5949 151.532 12.9922C150.931 13.3895 150.361 13.9243 149.822 14.5966V21.4723C149.822 21.7627 149.714 22.0071 149.498 22.2058C149.297 22.4044 149.052 22.5037 148.758 22.5037Z" fill="#969FA4"/>
<path fill-rule="evenodd" clip-rule="evenodd" d="M123.044 21.1431C121.961 20.0375 121.429 18.4976 121.429 16.5447C121.429 15.4408 121.633 14.4192 122.043 13.4817C122.455 12.5386 123.09 11.775 123.946 11.1935C124.809 10.6074 125.866 10.3188 127.108 10.3188C128.273 10.3188 129.288 10.5922 130.149 11.1449C131.005 11.6797 131.656 12.404 132.1 13.3152C132.543 14.2084 132.762 15.1864 132.762 16.2468C132.762 16.5749 132.648 16.8578 132.42 17.0858C132.2 17.32 131.902 17.4305 131.546 17.4305H123.884C124.025 18.3878 124.405 19.1273 125.014 19.6623C125.655 20.2262 126.561 20.5179 127.754 20.5179C128.393 20.5179 128.942 20.4576 129.404 20.3393L129.405 20.3391C129.887 20.2196 130.355 20.0478 130.807 19.8235C130.954 19.7506 131.116 19.7157 131.292 19.7157C131.577 19.7157 131.829 19.8146 132.042 20.0079C132.261 20.2062 132.37 20.4616 132.37 20.7619C132.37 21.1716 132.12 21.4967 131.692 21.7419L131.691 21.7426C131.08 22.0838 130.477 22.3408 129.878 22.5126C129.273 22.6861 128.502 22.7706 127.57 22.7706C125.659 22.7706 124.145 22.2342 123.046 21.1446L123.044 21.1431ZM123.729 17.4305C123.721 17.3802 123.715 17.3295 123.709 17.2782H131.546C131.869 17.2782 132.124 17.1789 132.308 16.9802C132.509 16.7815 132.609 16.5371 132.609 16.2468C132.609 15.2078 132.393 14.2528 131.962 13.3819C131.53 12.4957 130.898 11.7928 130.066 11.2733C129.234 10.7385 128.248 10.4711 127.108 10.4711C125.89 10.4711 124.865 10.7537 124.033 11.3191C123.2 11.8844 122.585 12.6255 122.183 13.5423C121.783 14.4591 121.582 15.4599 121.582 16.5447C121.582 18.47 122.107 19.9674 123.155 21.0369C124.218 22.0912 125.69 22.6184 127.57 22.6184C128.494 22.6184 129.249 22.5344 129.835 22.3663C130.42 22.1982 131.014 21.9461 131.615 21.6099C132.016 21.3808 132.216 21.098 132.216 20.7619C132.216 20.5021 132.124 20.2882 131.938 20.1201C131.754 19.9521 131.538 19.8681 131.292 19.8681C131.137 19.8681 130.998 19.8986 130.875 19.9597C130.413 20.1889 129.936 20.3646 129.442 20.4869C128.964 20.6091 128.402 20.6702 127.754 20.6702C126.537 20.6702 125.59 20.3723 124.912 19.7763C124.266 19.2091 123.872 18.427 123.729 17.4305ZM129.799 13.7872C129.475 13.3044 129.073 12.9576 128.592 12.7413L128.589 12.7397C128.1 12.5045 127.607 12.3882 127.108 12.3882C126.609 12.3882 126.115 12.5045 125.626 12.7396L125.622 12.7413C125.142 12.9576 124.739 13.3044 124.415 13.7872C124.118 14.2285 123.937 14.7741 123.875 15.4298H130.362C130.3 14.7753 130.111 14.2307 129.801 13.7898L129.799 13.7872ZM130.517 15.4298C130.521 15.48 130.526 15.5307 130.528 15.5821H123.709C123.713 15.5307 123.716 15.48 123.72 15.4298C123.783 14.7481 123.972 14.1724 124.287 13.7027C124.626 13.1985 125.05 12.8318 125.558 12.6026C126.067 12.3581 126.583 12.2359 127.108 12.2359C127.631 12.2359 128.148 12.3581 128.656 12.6026C129.165 12.8318 129.589 13.1985 129.928 13.7027C130.258 14.1724 130.454 14.7481 130.517 15.4298ZM135.378 19.8563L135.377 19.8547C134.805 18.9108 134.522 17.8055 134.522 16.5447C134.522 15.2839 134.805 14.1787 135.377 13.2348L135.378 13.2331C135.962 12.2937 136.737 11.5716 137.702 11.0696C138.665 10.5687 139.714 10.3188 140.848 10.3188C141.676 10.3188 142.395 10.427 143.002 10.6483C143.614 10.8505 144.18 11.1153 144.698 11.4428L144.7 11.4435C145.047 11.6675 145.232 11.9808 145.232 12.3734C145.232 12.6477 145.12 12.8971 144.914 13.1185C144.718 13.3301 144.477 13.4425 144.2 13.4425C144.001 13.4425 143.808 13.3888 143.619 13.2873C143.117 13.0304 142.687 12.852 142.33 12.7489L142.327 12.7477L142.323 12.7464C141.991 12.6317 141.562 12.5715 141.033 12.5715C139.739 12.5715 138.742 12.9435 138.022 13.6718L138.021 13.673C137.3 14.3882 136.933 15.3402 136.933 16.5447C136.933 17.7489 137.299 18.709 138.021 19.4399C138.741 20.1532 139.738 20.5179 141.033 20.5179C141.562 20.5179 141.992 20.4654 142.327 20.3646C142.686 20.2458 143.117 20.059 143.619 19.8022C143.808 19.7006 144.001 19.6469 144.2 19.6469C144.48 19.6469 144.72 19.7694 144.914 19.994C145.12 20.2009 145.232 20.443 145.232 20.716C145.232 21.1088 145.047 21.422 144.7 21.646L144.698 21.6468C144.18 21.974 143.615 22.2462 143.003 22.4638L143.001 22.4645C142.395 22.6701 141.676 22.7706 140.848 22.7706C139.714 22.7706 138.665 22.5208 137.702 22.0198C136.737 21.5178 135.962 20.7958 135.378 19.8563ZM144.801 20.0972C144.631 19.8986 144.431 19.7993 144.2 19.7993C144.03 19.7993 143.861 19.8452 143.691 19.9368C143.183 20.1966 142.743 20.3875 142.374 20.5098C142.02 20.6167 141.572 20.6702 141.033 20.6702C139.707 20.6702 138.667 20.2959 137.912 19.5472C137.157 18.7832 136.78 17.7824 136.78 16.5447C136.78 15.3071 137.157 14.3139 137.912 13.5652C138.667 12.8012 139.707 12.4193 141.033 12.4193C141.572 12.4193 142.02 12.4803 142.374 12.6026C142.743 12.7096 143.183 12.8929 143.691 13.1526C143.861 13.2444 144.03 13.2902 144.2 13.2902C144.431 13.2902 144.631 13.1985 144.801 13.0151C144.986 12.8165 145.078 12.6026 145.078 12.3734C145.078 12.0373 144.924 11.7699 144.616 11.5712C144.108 11.2504 143.552 10.9906 142.952 10.792C142.366 10.5781 141.665 10.4711 140.848 10.4711C139.738 10.4711 138.713 10.7156 137.773 11.2045C136.833 11.6934 136.079 12.3963 135.508 13.3131C134.953 14.2299 134.676 15.3071 134.676 16.5447C134.676 17.7824 134.953 18.8596 135.508 19.7763C136.079 20.6931 136.833 21.396 137.773 21.885C138.713 22.3739 139.738 22.6184 140.848 22.6184C141.665 22.6184 142.366 22.519 142.952 22.3204C143.552 22.1065 144.108 21.8391 144.616 21.5182C144.924 21.3196 145.078 21.0522 145.078 20.716C145.078 20.4869 144.986 20.2806 144.801 20.0972ZM114.903 22.6561C114.571 22.6561 114.286 22.5418 114.056 22.3136C113.826 22.0853 113.71 21.8016 113.71 21.4724V8.49192H109.148C108.832 8.49192 108.561 8.38606 108.346 8.17227C108.13 7.95848 108.023 7.68969 108.023 7.37698C108.023 7.06532 108.13 6.79729 108.343 6.58385C108.557 6.35485 108.83 6.23913 109.148 6.23913H120.66C120.977 6.23913 121.248 6.3541 121.462 6.58162C121.691 6.79374 121.807 7.06233 121.807 7.37698C121.807 7.69265 121.69 7.96198 121.459 8.17441C121.244 8.38676 120.974 8.49192 120.66 8.49192H116.121V21.4724C116.121 21.8044 115.995 22.0886 115.75 22.3155C115.52 22.5425 115.235 22.6561 114.903 22.6561ZM115.643 22.2058C115.859 22.0072 115.967 21.7627 115.967 21.4724V8.33959H120.66C120.938 8.33959 121.169 8.24791 121.353 8.06457C121.553 7.88121 121.653 7.65201 121.653 7.37698C121.653 7.10195 121.553 6.87275 121.353 6.6894C121.169 6.49076 120.938 6.39145 120.66 6.39145H109.148C108.87 6.39145 108.639 6.49076 108.455 6.6894C108.269 6.87275 108.177 7.10195 108.177 7.37698C108.177 7.65201 108.269 7.88121 108.455 8.06457C108.639 8.24791 108.87 8.33959 109.148 8.33959H113.863V21.4724C113.863 21.7627 113.963 22.0072 114.164 22.2058C114.364 22.4045 114.611 22.5038 114.903 22.5038C115.197 22.5038 115.443 22.4045 115.643 22.2058ZM148.758 22.6561C148.426 22.6561 148.141 22.5418 147.91 22.3136C147.679 22.0853 147.564 21.8016 147.564 21.4724V6.59773C147.564 6.26947 147.679 5.98647 147.908 5.75857C148.137 5.51519 148.423 5.39111 148.758 5.39111C149.092 5.39111 149.378 5.51449 149.607 5.75653C149.851 5.98316 149.976 6.26666 149.976 6.59773V12.1964C150.495 11.6733 151.05 11.2447 151.641 10.9116C152.347 10.5144 153.175 10.3188 154.121 10.3188C154.993 10.3188 155.756 10.5234 156.401 10.9388C157.057 11.3517 157.553 11.9161 157.889 12.6285C158.239 13.3382 158.413 14.1173 158.413 14.9633V21.4724C158.413 21.8044 158.288 22.0886 158.042 22.3156C157.812 22.5425 157.527 22.6561 157.196 22.6561C156.864 22.6561 156.577 22.5418 156.347 22.3135C156.117 22.0853 156.002 21.8016 156.002 21.4724V15.1924C156.002 14.2803 155.795 13.6245 155.405 13.1973C155.02 12.7732 154.432 12.5486 153.612 12.5486C152.871 12.5486 152.207 12.7394 151.617 13.1195C151.044 13.4982 150.497 14.0075 149.976 14.65V21.4724C149.976 21.8044 149.85 22.0885 149.605 22.3155C149.375 22.5425 149.089 22.6561 148.758 22.6561ZM149.498 22.2058C149.714 22.0072 149.822 21.7627 149.822 21.4724V14.5966C150.361 13.9243 150.931 13.3895 151.532 12.9922C152.149 12.595 152.842 12.3963 153.612 12.3963C155.308 12.3963 156.156 13.3284 156.156 15.1924V21.4724C156.156 21.7627 156.256 22.0072 156.456 22.2058C156.656 22.4045 156.903 22.5038 157.196 22.5038C157.488 22.5038 157.735 22.4045 157.935 22.2058C158.151 22.0072 158.259 21.7627 158.259 21.4724V14.9633C158.259 14.1382 158.09 13.3819 157.751 12.6942C157.427 12.0067 156.949 11.4643 156.317 11.067C155.701 10.6698 154.969 10.4711 154.121 10.4711C153.197 10.4711 152.395 10.6621 151.718 11.0441C151.098 11.3929 150.518 11.85 149.976 12.4155C149.924 12.4692 149.873 12.524 149.822 12.5797V6.59773C149.822 6.30741 149.714 6.06293 149.498 5.8643C149.297 5.65039 149.052 5.54343 148.758 5.54343C148.466 5.54343 148.219 5.65039 148.018 5.8643C147.818 6.06293 147.718 6.30741 147.718 6.59773V21.4724C147.718 21.7627 147.818 22.0072 148.018 22.2058C148.219 22.4045 148.466 22.5038 148.758 22.5038C149.052 22.5038 149.297 22.4045 149.498 22.2058Z" fill="#969FA4"/>
</g>
<defs>
<clipPath id="clip0_2_728">
<rect width="159" height="27" fill="white"/>
</clipPath>
</defs>
</svg>
