<svg width="55" height="55" viewBox="0 0 55 55" fill="none" xmlns="http://www.w3.org/2000/svg">
<path fill-rule="evenodd" clip-rule="evenodd" d="M19.4635 8.10604C13.0461 9.33976 9.7476 14.229 9.7476 22.6137C9.72516 31.2041 18.2294 36.4817 26.9805 33.306L28.5962 32.712C29.9201 34.1285 30.1445 34.1285 28.7308 34.9966C27.6089 35.682 27.721 36.3903 28.439 36.6644C29.4039 37.03 35.2605 42.7645 36.0459 44.1582C38.9405 49.2987 46.1657 47.4938 45.6721 43.4728C45.4477 41.645 44.0788 39.5203 42.4632 38.0124C40.6682 36.3218 39.6584 34.9509 38.3346 32.3921C37.0555 29.9018 35.9113 29.3535 34.2507 30.3816C33.5327 30.8157 33.4653 30.8385 33.0839 30.473C32.2985 29.7647 32.3434 29.285 33.3083 27.7999C36.9883 22.0425 37.1902 17.0163 33.9366 13.0181C29.4039 7.44349 25.522 9.454 28.1698 11.1903C34.6097 15.3941 34.2732 23.9388 27.407 30.3816C23.5923 33.9685 15.9183 32.0494 13.9437 27.0231C10.8247 19.0268 15.963 8.47159 24.2879 10.1622C27.1601 10.9162 28.3045 6.41538 19.4635 8.10604ZM18.566 13.7949C17.6012 14.6174 18.2294 15.3256 20.0245 14.069C21.2811 13.2009 21.887 13.0409 23.0314 13.3151C24.5348 13.6578 25.4547 13.2694 24.9835 12.4926C24.8264 12.2185 21.5279 11.2589 18.566 13.7949ZM27.5639 13.4979C26.3523 13.4293 26.0381 14.1147 26.8684 15.0058C27.9005 16.1252 29.965 16.308 29.8527 15.2799C29.7854 14.5717 28.4839 13.5436 27.5639 13.4979ZM35.3727 32.6434C35.5522 33.3974 37.3249 36.0476 38.2673 37.03C39.4117 38.1952 39.9053 38.972 41.3862 40.6169C44.393 43.9754 40.8028 47.311 37.9755 43.1072C34.4078 37.8068 31.0868 36.139 31.1317 35.5221C31.199 34.7453 35.2156 32.0037 35.3727 32.6434Z" fill="#006B99"/>
</svg>
